<?xml version="1.0" encoding="UTF-8" standalone="no"?>
<!DOCTYPE svg PUBLIC "-//W3C//DTD SVG 1.1//EN" "http://www.w3.org/Graphics/SVG/1.1/DTD/svg11.dtd">
<!-- Created with Vectornator (http://vectornator.io/) -->
<svg height="100%" stroke-miterlimit="10" style="fill-rule:nonzero;clip-rule:evenodd;stroke-linecap:round;stroke-linejoin:round;" version="1.1" viewBox="0 0 595.35 841.995" width="100%" xml:space="preserve" xmlns="http://www.w3.org/2000/svg" xmlns:vectornator="http://vectornator.io" xmlns:xlink="http://www.w3.org/1999/xlink">
<defs>
<linearGradient gradientTransform="matrix(1.30801 0 0 1.34062 -91.6835 -143.405)" gradientUnits="userSpaceOnUse" id="LinearGradient" x1="114.006" x2="297.675" y1="246.617" y2="246.617">
<stop offset="0.0794037" stop-color="#deb664" stop-opacity="0.757326"/>
<stop offset="1" stop-color="#e3ca00"/>
</linearGradient>
<linearGradient gradientTransform="matrix(-1.30801 1.64179e-16 -1.60185e-16 -1.34062 687.042 517.836)" gradientUnits="userSpaceOnUse" id="LinearGradient_2" x1="114.006" x2="297.675" y1="246.617" y2="246.617">
<stop offset="0.0794037" stop-color="#deb664" stop-opacity="0.757326"/>
<stop offset="1" stop-color="#e3ca00"/>
</linearGradient>
</defs>
<clipPath id="ArtboardFrame">
<rect height="841.995" width="595.35" x="0" y="0"/>
</clipPath>
<g clip-path="url(#ArtboardFrame)" id="Layer-1" vectornator:layerName="Layer 1">
<path d="M-1.61074e-14 7.10543e-14L-1.61074e-14 25.011C10.85 26.6433 19.2114 36.144 19.2114 47.7178C19.2114 59.2916 10.85 68.7923-1.61074e-14 70.4246L-1.61074e-14 92.8381C11.1323 94.2099 19.7837 103.807 19.7837 115.587C19.7837 127.368 11.1343 137.008-1.61074e-14 138.377L-1.61074e-14 160.623C11.4194 161.715 20.3968 171.467 20.3968 183.456C20.3968 195.445 11.4194 205.197-1.61074e-14 206.288L-1.61074e-14 228.451C11.7115 229.241 20.9691 239.121 20.9691 251.325C20.9691 263.528 11.7115 273.409-1.61074e-14 274.199L-1.61074e-14 296.236C11.9851 296.729 21.5822 306.789 21.5822 319.194C21.5822 331.599 11.9851 341.659-1.61074e-14 342.152L-1.61074e-14 364.063C12.2748 364.224 22.1953 374.444 22.1953 387.063C22.1953 399.682 12.2748 409.902-1.61074e-14 410.063L-1.61074e-14 431.932C0.0979517 431.931 0.187878 431.89 0.286128 431.89C12.6965 431.89 22.7676 442.212 22.7676 454.932C22.7676 467.652 12.6965 477.974 0.286128 477.974C0.187935 477.974 0.097895 477.933-1.61074e-14 477.932L-1.61074e-14 499.843C0.304221 499.83 0.59204 499.759 0.899258 499.759C13.3097 499.759 23.3807 510.081 23.3807 522.801C23.3807 535.521 13.3097 545.843 0.899258 545.843C0.592359 545.843 0.303909 545.772-1.61074e-14 545.759L-1.61074e-14 567.796C0.499846 567.762 0.963256 567.628 1.47151 567.628C13.8819 567.628 23.953 577.95 23.953 590.67C23.953 603.39 13.8819 613.712 1.47151 613.712C0.963705 613.712 0.499412 613.578-1.61074e-14 613.544L-1.61074e-14 635.707C0.695727 635.64 1.37196 635.497 2.08464 635.497C14.4951 635.497 24.5661 645.819 24.5661 658.539C24.5661 671.259 14.495 681.581 2.08464 681.581C1.37116 681.581 0.696488 681.396-1.61074e-14 681.33L-1.61074e-14 703.659C0.888582 703.55 1.73952 703.366 2.6569 703.366C15.0673 703.366 25.1383 713.688 25.1384 726.408C25.1384 739.128 15.0673 749.45 2.6569 749.45C1.74036 749.45 0.887801 749.266-1.61074e-14 749.157L-1.61074e-14 771.57C1.07436 771.409 2.15188 771.235 3.27003 771.235C15.6804 771.235 25.7515 781.557 25.7515 794.277C25.7515 806.997 15.6804 817.319 3.27003 817.319C2.15145 817.319 1.07476 817.104-1.61074e-14 816.942L-1.61074e-14 841.995L23.0537 841.995C23.0537 829.275 33.1248 818.953 45.5352 818.953C57.9456 818.953 68.0167 829.275 68.0166 841.995L86.0836 841.995C86.0836 829.275 96.1546 818.953 108.565 818.953C120.975 818.953 131.046 829.275 131.046 841.995L149.154 841.995C149.154 829.275 159.184 818.953 171.595 818.953C184.005 818.953 194.076 829.275 194.076 841.995L212.184 841.995C212.184 829.275 222.214 818.953 234.625 818.953C247.035 818.953 257.106 829.275 257.106 841.995L275.214 841.995C275.214 829.275 285.285 818.953 297.695 818.953C310.106 818.953 320.136 829.275 320.136 841.995L338.244 841.995C338.244 829.275 348.315 818.953 360.725 818.953C373.136 818.953 383.166 829.275 383.166 841.995L401.274 841.995C401.274 829.275 411.345 818.953 423.755 818.953C436.166 818.953 446.237 829.275 446.237 841.995L464.304 841.995C464.304 829.275 474.374 818.953 486.785 818.953C499.195 818.953 509.266 829.275 509.266 841.995L527.333 841.995C527.333 829.275 537.404 818.953 549.815 818.953C562.225 818.953 572.296 829.275 572.296 841.995L595.35 841.995L595.35 816.356C585.848 813.669 578.836 804.871 578.836 794.277C578.836 783.683 585.848 774.844 595.35 772.157L595.35 748.696C585.534 746.228 578.223 737.23 578.223 726.408C578.223 715.586 585.534 706.547 595.35 704.078L595.35 680.995C585.237 678.748 577.651 669.577 577.651 658.539C577.651 647.502 585.237 638.289 595.35 636.042L595.35 613.251C584.933 611.247 577.038 601.929 577.038 590.67C577.038 579.411 584.933 570.051 595.35 568.047L595.35 545.466C584.652 543.699 576.466 534.264 576.466 522.801C576.466 511.339 584.654 501.904 595.35 500.136L595.35 477.639C584.362 476.132 575.852 466.606 575.852 454.932C575.852 443.258 584.362 433.69 595.35 432.183L595.35 409.854C584.068 408.626 575.28 398.952 575.28 387.063C575.28 375.174 584.068 365.5 595.35 364.272L595.35 342.068C583.793 341.116 574.667 331.284 574.667 319.194C574.667 307.104 583.793 297.272 595.35 296.32L595.35 274.241C583.502 273.598 574.054 263.629 574.054 251.325C574.054 239.021 583.502 229.052 595.35 228.409L595.35 206.456C583.229 206.117 573.482 195.961 573.482 183.456C573.482 170.95 583.228 160.795 595.35 160.456L595.35 138.629C582.94 138.629 572.868 128.307 572.869 115.587C572.869 102.867 582.94 92.5449 595.35 92.5449L595.35 70.7179C595.154 70.723 594.975 70.7598 594.778 70.7598C582.367 70.7598 572.296 60.4376 572.296 47.7178C572.296 34.998 582.367 24.6758 594.778 24.6758C594.975 24.6758 595.154 24.7126 595.35 24.7177L595.35 7.10543e-14L572.296 7.10543e-14C572.296 12.7198 562.225 23.0001 549.815 23.0001C537.404 23.0001 527.333 12.7198 527.333 7.10543e-14L509.266 7.10543e-14C509.266 12.7198 499.195 23.0001 486.785 23.0001C474.375 23.0001 464.304 12.7198 464.304 7.10543e-14L446.237 7.10543e-14C446.237 12.7198 436.166 23.0001 423.755 23.0001C411.345 23.0001 401.274 12.7198 401.274 7.10543e-14L383.166 7.10543e-14C383.166 12.7198 373.136 23.0001 360.725 23.0001C348.315 23.0001 338.244 12.7198 338.244 7.10543e-14L320.136 7.10543e-14C320.136 12.7198 310.106 23.0001 297.695 23.0001C285.285 23.0001 275.214 12.7198 275.214 7.10543e-14L257.106 7.10543e-14C257.106 12.7198 247.035 23.0001 234.625 23.0001C222.214 23.0001 212.184 12.7198 212.184 7.10543e-14L194.076 7.10543e-14C194.076 12.7198 184.005 23.0001 171.595 23.0001C159.184 23.0001 149.154 12.7198 149.154 7.10543e-14L131.046 7.10543e-14C131.046 12.7198 120.975 23.0001 108.565 23.0001C96.1546 23.0001 86.0835 12.7198 86.0836 7.10543e-14L68.0166 7.10543e-14C68.0166 12.7198 57.9456 23.0001 45.5352 23.0001C33.1248 23.0001 23.0537 12.7198 23.0537 7.10543e-14L-1.61074e-14 7.10543e-14Z" fill="#fdefeb" fill-rule="nonzero" opacity="1" stroke="none"/>
<path d="M57.4339 62.8565L537.916 62.8565L537.916 779.132L57.4339 779.132L57.4339 62.8565Z" fill="#f24f40" fill-rule="nonzero" opacity="1" stroke="none"/>
<path d="M262.134 137.037L241.778 284.966L353.572 284.966L333.216 137.037L262.134 137.037ZM235.974 327.321L229.801 372.149L365.549 372.149L359.376 327.321L235.974 327.321ZM223.997 414.504L217.825 459.331L377.525 459.331L371.353 414.504L223.997 414.504ZM212.021 501.686L205.848 546.513L389.502 546.513L383.329 501.686L212.021 501.686ZM200.044 588.869L193.872 633.696L401.478 633.696L395.306 588.869L200.044 588.869ZM188.068 676.051L180.138 733.698L415.212 733.698L407.282 676.051L188.068 676.051Z" fill="#fdefeb" fill-rule="nonzero" opacity="1" stroke="none"/>
<path d="M228.069 690.769C219.947 690.769 213.359 695.604 213.359 701.575L213.359 733.698L242.779 733.698L242.779 701.575C242.779 695.604 236.191 690.769 228.069 690.769Z" fill="#111c71" fill-rule="nonzero" opacity="1" stroke="none"/>
<path d="M57.4339 733.698L537.916 733.698L537.916 779.132L57.4339 779.132L57.4339 733.698Z" fill="#111c71" fill-rule="nonzero" opacity="1" stroke="none"/>
<path d="M297.695 77.2534C289.944 77.2534 283.634 83.6789 283.634 91.6232C283.634 92.4837 283.983 93.2341 284.125 94.0531C266.362 99.9699 253.386 116.871 253.387 137.037L341.963 137.037C341.963 116.853 329.038 99.9128 311.266 94.0112C311.402 93.2076 311.716 92.4666 311.716 91.6232C311.716 83.6788 305.447 77.2534 297.695 77.2534Z" fill="#fdefeb" fill-rule="nonzero" opacity="1" stroke="none"/>
<path d="M200.78 237.625L200.78 290.371L394.57 290.371L394.57 237.625L200.78 237.625ZM205.644 245.921L229.147 245.921L229.147 282.075L205.644 282.075L205.644 245.921ZM237.731 245.921L261.275 245.921L261.275 282.075L237.731 282.075L237.731 245.921ZM269.859 245.921L293.404 245.921L293.404 282.075L269.859 282.075L269.859 245.921ZM301.987 245.921L325.491 245.921L325.491 282.075L301.987 282.075L301.987 245.921ZM334.075 245.921L357.619 245.921L357.619 282.075L334.075 282.075L334.075 245.921ZM366.203 245.921L389.706 245.921L389.706 282.075L366.203 282.075L366.203 245.921Z" fill="#111c71" fill-rule="nonzero" opacity="1" stroke="none"/>
<path d="M192.946 290.371L402.404 290.371L402.404 301.437L192.946 301.437L192.946 290.371Z" fill="#111c71" fill-rule="nonzero" opacity="1" stroke="none"/>
<path d="M297.679 187.216L57.438 209.887L57.438 164.544L297.679 187.216Z" fill="url(#LinearGradient)" fill-rule="nonzero" opacity="1" stroke="none"/>
<path d="M297.679 187.216L537.92 164.544L537.92 209.887L297.679 187.216Z" fill="url(#LinearGradient_2)" fill-rule="nonzero" opacity="1" stroke="none"/>
</g>
</svg>
